David Gilmour Remember That Night Live At The Royal Albert Hall Mkv 1080p Dolby 

Digital 5.1 512 Kbps

Track Listing:

1 .Speak To
2 .Breathe (In The Air)
3 .Time
4. Breathe (In The Air) (reprise)
5. Castellorizon
6. On An Island featuring Crosby & Nash
7. The Blue featuring Crosby & Nash
8. Red Sky At Night
9. This Heaven
10. Then I Close My Eyes featuring Robert Wyatt
11. Smile
12. Take A Breath
13. A Pocketful Of Stones
14. Where We Start
15. Shine On You Crazy Diamond featuring Crosby & Nash
16. Fat Old Sun
17. Coming Back To Life
18. High Hopes
19. Echoes
20. Wish You Were Here
21. Find The Cost Of Freedom featuring Crosby & Nash
22. Arnold Layne featuring David Bowie
23. Comfortably Numb featuring David Bowie 


General 
Unique ID : 191539060529516155626160326102264423617 (0x901914CACABC9E749570BC939F19A4C1) 
David Gilmour Remember That Night Live At The Royal Albert Hall.mkv 
Format : Matroska 
Format version : Version 2 
File size : 5.27 GiB 
Duration : 2h 32mn 
Overall bit rate mode : Variable 
Overall bit rate : 4 950 Kbps 
Movie name : Remember That Night David Gilmour Live At The Royal Albert Hall Disc 1 
Encoded date : UTC 2012-11-18 10:52:03 
Writing application : mkvmerge v5.7.0 ('The Whirlwind') built on Jul 8 2012 20:08:51 
Writing library : libebml v1.2.3 + libmatroska v1.3.0 

Video 
ID : 1 
Format : AVC 
Format/Info : Advanced Video Codec 
Format profile : High@L4.0 
Format settings, CABAC : Yes 
Format settings, ReFrames : 3 frames 
Codec ID : V_MPEG4/ISO/AVC 
Duration : 2h 32mn 
Bit rate mode : Variable 
Bit rate : 4 339 Kbps 
Maximum bit rate : 25.0 Mbps 
Width : 1 920 pixels 
Height : 1 080 pixels 
Display aspect ratio : 16:9 
Frame rate mode : Constant 
Frame rate : 29.970 fps 
Color space : YUV 
Chroma subsampling : 4:2:0 
Bit depth : 8 bits 
Scan type : Progressive 
Bits/(Pixel*Frame) : 0.070 
Stream size : 4.62 GiB (88%) 
Writing library : x264 core 125 r2208 d9d2288 
Encoding settings : cabac=1 / ref=3 / deblock=1:0:0 / analyse=0x3:0x113 / me=hex / subme=7 / psy=1 / psy_rd=1.00:0.00 / mixed_ref=1 / me_range=16 / chroma_me=1 / trellis=1 / 8x8dct=1 / cqm=0 / deadzone=21,11 / fast_pskip=1 / chroma_qp_offset=-2 / threads=12 / lookahead_threads=2 / sliced_threads=0 / nr=0 / decimate=1 / interlaced=0 / bluray_compat=0 / constrained_intra=0 / bframes=3 / b_pyramid=0 / b_adapt=1 / b_bias=0 / direct=1 / weightb=1 / open_gop=0 / weightp=2 / keyint=300 / keyint_min=30 / scenecut=40 / intra_refresh=0 / rc_lookahead=40 / rc=crf / mbtree=1 / crf=24.0 / qcomp=0.60 / qpmin=0 / qpmax=69 / qpstep=4 / vbv_maxrate=25000 / vbv_bufsize=25000 / crf_max=0.0 / nal_hrd=vbr / ip_ratio=1.40 / aq=1:1.00 
Default : Yes 
Forced : No 

Audio 
ID : 2 
Format : AC-3 
Format/Info : Audio Coding 3 
Mode extension : CM (complete main) 
Format settings, Endianness : Big 
Codec ID : A_AC3 
Duration : 2h 32mn 
Bit rate mode : Constant 
Bit rate : 512 Kbps 
Channel(s) : 6 channels 
Channel positions : Front: L C R, Side: L R, LFE 
Sampling rate : 48.0 KHz 
Bit depth : 16 bits 
Compression mode : Lossy 
Stream size : 558 MiB (10%) 
Language : English 
Default : Yes 
Forced : No 

Menu 
00:00:00.000 : en:Chapter 00 
00:01:10.770 : en:Chapter 01 
00:04:01.641 : en:Chapter 02 
00:09:16.389 : en:Chapter 03 
00:10:25.725 : en:Chapter 04 
00:15:04.370 : en:Chapter 05 
00:22:40.592 : en:Chapter 06 
00:28:47.425 : en:Chapter 07 
00:31:58.449 : en:Chapter 08 
00:36:13.738 : en:Chapter 09 
00:46:00.023 : en:Chapter 10 
00:50:20.017 : en:Chapter 11 
00:56:28.518 : en:Chapter 12 
01:02:32.181 : en:Chapter 13 
01:10:31.827 : en:Chapter 14 
01:10:32.027 : en:Chapter 15 
01:11:24.179 : en:Chapter 16 
01:22:37.686 : en:Chapter 17 
01:28:59.100 : en:Chapter 18 
01:35:40.067 : en:Chapter 19 
01:44:58.258 : en:Chapter 20 
02:07:16.929 : en:Chapter 21 
02:12:43.555 : en:Chapter 22 
02:14:46.445 : en:Chapter 23 
02:18:57.595 : en:Chapter 24 
02:28:37.808 : en:Chapter 25 
